<?xml version="1.0" encoding="utf-8"?>
<!-- Generator: Adobe Illustrator 24.0.0, SVG Export Plug-In . SVG Version: 6.00 Build 0)  -->
<svg version="1.1" id="Layer_1" xmlns="http://www.w3.org/2000/svg" xmlns:xlink="http://www.w3.org/1999/xlink" x="0px" y="0px"
	 viewBox="0 0 80 80" style="enable-background:new 0 0 80 80;" xml:space="preserve">
<style type="text/css">
	.st0{fill:#F75A55;}
</style>
<path class="st0" d="M0.3,79.4c4.7-3.1,9.3-6.2,14-9.3c-0.3-0.3-0.5-0.5-0.7-0.7C6.4,62.8,1.9,54.8,0.7,45.1
	C-0.9,31.2,3.6,19.5,14,10.2c6.3-5.6,13.8-8.8,22.2-9.6c11.2-1,21.2,2.1,29.7,9.4c6.8,5.8,11.3,13.2,13,22
	c2.5,12.3-0.3,23.5-8.3,33.2c-5.6,6.9-12.9,11.2-21.5,13.3c-2.9,0.7-5.8,1-8.7,1c-13.1,0-26.1,0-39.2,0c-0.3,0-0.6,0-0.9,0
	C0.4,79.5,0.3,79.4,0.3,79.4z M39.9,43c4.8,0,9.5,0,14.3,0c1.9,0,3.1-1.2,3.1-3.1c0-1.8-1.3-3.2-3.1-3.2c-9.5,0-19.1,0-28.7,0
	c-2,0-3.2,1.3-3.1,3.2c0,1.8,1.4,3.1,3.3,3.1C30.3,43,35.1,43,39.9,43z M39.8,29.7c4.7,0,9.4,0,14.1,0c1.4,0,2.4-0.6,3-1.8
	c1-2.1-0.5-4.5-2.9-4.5c-4.1,0-8.3,0-12.4,0c-5.3,0-10.7,0-16,0c-2,0-3.4,1.4-3.3,3.3c0,1.8,1.4,3.1,3.3,3.1
	C30.3,29.7,35.1,29.7,39.8,29.7z M32.7,56.7c2.4,0,4.8,0,7.2,0c1.6,0,2.7-1,3-2.5c0.3-2.1-1.1-3.8-3.2-3.8c-4.7,0-9.5,0-14.2,0
	c-0.3,0-0.6,0-0.9,0.1c-1.5,0.4-2.4,1.9-2.2,3.5c0.2,1.5,1.5,2.7,3,2.7C27.8,56.7,30.3,56.7,32.7,56.7z"/>
</svg>
