<?xml version="1.0" encoding="utf-8"?>
<!-- Generator: Adobe Illustrator 24.0.0, SVG Export Plug-In . SVG Version: 6.00 Build 0)  -->
<svg version="1.1" id="Layer_1" xmlns="http://www.w3.org/2000/svg" xmlns:xlink="http://www.w3.org/1999/xlink" x="0px" y="0px"
	 viewBox="0 0 80 80" style="enable-background:new 0 0 80 80;" xml:space="preserve">
<style type="text/css">
	.st0{fill:#F75A55;}
</style>
<path class="st0" d="M62.2,54.5c-0.6-2.9,0.1-4.9,2.2-6.9c4.7-4.7,9.1-9.5,13.6-14.3c2.3-2.5,1.3-5.4-2-6.1
	c-0.4-0.1-0.8-0.1-1.2-0.2c-6.4-0.8-12.8-1.7-19.2-2.6c-1.9-0.2-3-1.2-3.9-2.9c-2.9-6.1-6-12.3-8.9-18.4c-0.7-1.5-1.7-2.7-3.6-2.6
	c-1.9,0-2.8,1.2-3.5,2.8C32.8,9.5,30,15.8,27.2,22c-0.7,1.7-1.9,2.5-3.7,2.8c-6.6,1.1-13.2,2.3-19.8,3.4c-1.6,0.3-2.9,0.8-3.5,2.5
	c-0.6,1.7,0.3,2.9,1.4,4.1c5,4.9,9.9,9.9,14.9,14.8c1.2,1.2,1.6,2.5,1.3,4.1c-1.1,7-2,14.1-3.1,21.1c-0.2,1.7-0.1,3,1.3,4.1
	c1.5,1.1,3,0.7,4.5-0.2c5.7-3.3,11.4-6.5,17.1-9.9c1.8-1.1,3.4-1.1,5.1,0c1.9,1.1,3.8,2,5.8,3.1c4.1,2.2,8.1,4.3,12.1,6.5
	c2.5,1.3,5.1-0.2,5.2-3.2c-0.1-0.4-0.1-1.1-0.2-1.7C64.5,67.2,63.5,60.8,62.2,54.5z"/>
</svg>
