<?xml version="1.0" encoding="utf-8"?>
<!-- Generator: Adobe Illustrator 24.0.0, SVG Export Plug-In . SVG Version: 6.00 Build 0)  -->
<svg version="1.1" id="Layer_1" xmlns="http://www.w3.org/2000/svg" xmlns:xlink="http://www.w3.org/1999/xlink" x="0px" y="0px"
	 viewBox="0 0 54 80" style="enable-background:new 0 0 54 80;" xml:space="preserve">
<style type="text/css">
	.st0{fill-rule:evenodd;clip-rule:evenodd;fill:#F75A55;}
</style>
<path class="st0" d="M15.6,31.1c-0.4-0.8-1.2-1.4-1.9-1.9c-1.5-1.1-2.6-2.4-2.8-4.3c-0.2-1.7,0.3-3.2,1.6-4.2c0.7-0.5,0.7-1,0.5-1.7
	c-0.8-2.6-0.8-5.3,0.2-7.9c0.9-2.3,2.4-4,4.9-4.7c0.1,0,0.1-0.1,0.2-0.1c0.1,0,0.2-0.1,0.3-0.2C18.5,6,18.4,6,18.2,5.9
	c-0.4-0.2-0.8-0.3-1.2-0.4c1.6-0.9,3.4-1.1,5.3-1.1c-1-0.9-2.2-1.1-3.5-1.3c-0.3,0-0.6-0.1-0.9-0.1c3.2-1,6.1-0.7,9.1,0.6
	c-0.3-1.1-1.1-1.5-1.9-1.9c-0.4-0.2-0.7-0.4-1-0.6c1.4-0.6,2.8-0.7,4.3-0.4c4.7,1,8.6,3.1,11.1,7.3c2.1,3.4,2.6,7,1.7,10.9
	c-0.2,0.9-0.1,1.5,0.6,2.2c1.5,1.4,1.8,3.2,1.2,5.2c-0.6,1.7-1.8,2.9-3.4,3.8c-0.4,0.2-0.8,0.6-1,1c-2.2,4.4-5.9,6.8-10.5,8.1
	c-0.6,0.2-1.4,0.1-2,0C21.5,38,17.9,35.4,15.6,31.1z M18.2,13.8c-0.6,0.8-1.2,1.7-1.5,2.7c-0.3,1-0.6,2-0.8,3.1
	c-0.1,0.4-0.2,0.9-0.3,1.3c0.9,0.1,1.3,0.1,1.6-0.1c0.3-0.1,0.5-0.4,0.9-0.9c1.8-2.3,5.2-2.3,7.1,0c0.1,0.1,0.1,0.2,0.2,0.3
	c0.1,0.1,0.2,0.2,0.3,0.3c1-0.6,2-0.5,3,0c2.7-3.1,5.5-3,8.1,0.3c0.1,0.1,0.3,0.2,0.4,0.2c0.4,0,0.7,0,1.1,0c0.1,0,0.2,0,0.4,0
	c-0.1-0.6-0.2-1-0.3-1.5c-0.5-2.9-1.8-5.2-4.5-6.6c-0.5-0.2-0.8-0.2-1.2,0.1c-0.5,0.3-0.9,0.6-1.5,0.9c-0.3,0.1-0.5,0.3-0.8,0.5
	c0.2-0.8,0.3-1.6,0.5-2.3c0.1-0.8,0.3-1.5,0.5-2.3c-0.3,0.4-0.6,0.8-0.8,1.1c-0.5,0.6-0.9,1.2-1.4,1.8c-0.8,0.9-1.7,1.7-3,1.9
	c0.1-0.5,0.1-1,0.2-1.5c0.1-0.8,0.2-1.6,0.3-2.4c-0.1,0.1-0.1,0.2-0.2,0.3c-1.9,2.1-3.7,4.2-6.8,4.8c0.2-0.5,0.5-0.9,0.7-1.4
	c0.3-0.6,0.6-1.2,0.9-1.8C19.8,12.6,18.9,13,18.2,13.8z M32.6,25.5c1.5,0,2.8-1.2,2.8-2.7c0-1.5-1.2-2.7-2.7-2.8
	c-1.5,0-2.7,1.2-2.8,2.7C29.9,24.3,31.1,25.5,32.6,25.5z M21.6,25.5c1.5,0,2.7-1.2,2.8-2.7S23.1,20,21.6,20c-1.5,0-2.7,1.3-2.7,2.8
	C18.9,24.3,20.1,25.5,21.6,25.5z M17,22.8h-1.8c-1,0-1.5,0.4-1.5,1.5c0,0.6,0.2,1.4,0.6,1.9c0.4,0.4,0.9,0.8,1.3,1.1
	c0.3,0.2,0.6,0.4,0.8,0.6c0.1,0.1,0.2,0.1,0.3,0.2c0.4,0.3,0.8,0.6,0.9,1c1.6,3.8,4.5,6,8.3,7.2c0.5,0.1,1,0.2,1.5,0.1
	c3.4-0.8,6.3-2.4,8-5.4l0,0c0.9-1.6,1.8-3.1,3.6-4c0.6-0.3,1-1.1,1.3-1.8c0.1-0.5,0-1.1-0.1-1.6c0-0.1-0.1-0.3-0.1-0.4
	c0-0.2-0.4-0.3-0.6-0.4c-0.5,0-1.1,0-1.7,0c-0.2,0-0.5,0-0.7,0c0,0.2-0.1,0.3-0.1,0.5c0,0.3-0.1,0.5-0.2,0.8
	c-0.6,2.2-2.7,3.6-4.9,3.3c-2.1-0.3-3.9-2.1-4-4.2c0-0.6-0.2-1.2-0.9-1.2c-0.6,0-0.9,0.4-1,1.2c-0.2,2.2-1.9,4-4,4.2
	c-2.2,0.2-4.3-1.1-4.9-3.3c-0.1-0.3-0.1-0.6-0.2-0.9C17,23,17,22.9,17,22.8z M53.6,49.5c-0.1-4.6-3.5-8.8-8-9.4
	c-2.5-0.3-5-0.4-7.5-0.4h0c-1.1,0-2.3,0-3.4-0.1c-0.1,0.2-0.1,0.4-0.2,0.5c0,0.1-0.1,0.2-0.1,0.2c-0.9,3.4-3.8,5.7-7.3,5.7
	c-3.5,0-6.5-2.3-7.4-5.7c-0.1-0.6-0.4-0.7-0.9-0.7c-1.5,0-3,0-4.6,0h0c-1.1,0-2.3,0-3.4,0C5,39.8,0.6,44.2,0.6,50.1v16.5v0.8h6.5
	c0-0.1,0-0.2,0-0.3c0-0.2,0-0.3,0-0.5C7,66.1,7,65.5,7,64.8c-0.2-2.6-0.3-5.1-0.6-7.7c-0.3-3.8,2.6-7.3,6.5-7.3c9.5,0,19,0,28.5,0
	c3.6,0,6.6,3.3,6.4,6.9c-0.1,1.7-0.2,3.4-0.3,5.1c-0.1,0.7-0.1,1.4-0.2,2.1c0,0.6-0.1,1.2-0.1,1.8c0,0.6-0.1,1.2-0.1,1.8h6.5
	c0-0.1,0-0.1,0-0.2c0-0.1,0-0.1,0-0.2c0-1.7,0-3.4,0-5v0v0C53.7,57.9,53.7,53.7,53.6,49.5z M40.6,52.4H27.1c-1.6,0-3.1,0-4.7,0h0
	c-3.1,0-6.2,0-9.3,0c-2.5,0-4.4,2.1-4.2,4.5c0.2,3.1,0.4,6.2,0.7,9.3c0.2,3.1,0.4,6.2,0.7,9.3c0.2,2.3,1.9,4,4.2,4
	c8.5,0,16.9,0,25.4,0c2.3,0,4-1.7,4.2-4c0.1-1.6,0.2-3.1,0.3-4.7l0,0c0.3-4.5,0.6-9,1-13.5C45.5,54.2,43.8,52.3,40.6,52.4z
	 M27.1,69.2c-1.8,0-3.3-1.4-3.3-3.3c0-1.8,1.4-3.3,3.2-3.3c1.9,0,3.3,1.4,3.4,3.3C30.4,67.8,29,69.2,27.1,69.2z"/>
</svg>
