<?xml version="1.0" encoding="utf-8"?>
<!-- Generator: Adobe Illustrator 24.0.0, SVG Export Plug-In . SVG Version: 6.00 Build 0)  -->
<svg version="1.1" id="Layer_1" xmlns="http://www.w3.org/2000/svg" xmlns:xlink="http://www.w3.org/1999/xlink" x="0px" y="0px"
	 viewBox="0 0 80 80" style="enable-background:new 0 0 80 80;" xml:space="preserve">
<style type="text/css">
	.st0{fill:#F75A55;}
</style>
<g>
	<path class="st0" d="M74.1,6.8c-1-0.8-2.2-1.3-3.3-1.9C70.7,5,70.6,5,70.5,5.1c0,1.6,0.1,3.2,0,4.8c-0.2,3.1-2.9,5.9-6,6.4
		c-3,0.4-5.6-0.4-7.5-2.9c-1.1-1.4-1.5-3-1.5-4.7c0-1.3,0-2.7,0-4.1c-2.7,0-5.3,0-8,0c0,1.4,0,2.8,0,4.2c0,2-0.6,3.8-2,5.3
		c-1.9,2.1-5.2,3-8.2,2c-2.6-0.8-4.7-3.4-4.9-6.1c-0.1-1.7,0-3.5,0-5.3c-2.8,0-5.5,0-8.3,0c0,0.9,0,1.9,0,2.8
		c-0.1,1.3-0.1,2.6-0.4,3.9c-0.9,3.3-4.2,5.3-7.6,5.1c-3.3-0.2-6.1-2.6-6.7-5.7c-0.2-1.6-0.1-3-0.1-4.4c0-0.4,0-0.8,0-1.3
		c-1.4,0.3-2.4,1-3.4,1.7c-3.1,2.4-4.6,5.6-4.6,9.5c0,17.4,0,34.7,0,52.1c0,5.9,4.2,10.6,10,11.5c0.2,0,0.3,0.1,0.4,0.1
		c18.9,0,37.7,0,56.6,0c1.3-0.4,2.7-0.6,3.9-1.2c4.1-2,6.2-5.4,6.5-9.9c0-0.3,0-0.6,0-0.9c0-17.1,0-34.2,0-51.3
		C78.8,12.6,77.3,9.3,74.1,6.8z M73,66.7c0,2.9-1.1,5.3-3.9,6.6c-1,0.5-2.1,0.7-3.2,0.7c-17.2,0-34.5,0-51.7,0c-3.4,0-6-1.9-6.9-5.1
		C7.1,68.2,7,67.5,7,66.7c0-12,0-24.1,0-36.1c0-3.2,1.9-5,5.1-5c9.3,0,18.6,0,27.9,0c9.2,0,18.5,0,27.7,0c3.4,0,5.2,1.8,5.2,5.3
		C73,42.8,73,54.8,73,66.7z"/>
	<path class="st0" d="M63,12.7c2.2,0,4-1.3,4.1-3.5c0.1-2,0.1-4-0.1-6C66.9,1.3,65.3,0,63.3,0c-2.2,0-3.8,1.1-4,3.1
		c-0.1,1.1,0,2.2,0,3.3c0,0,0,0-0.1,0c0,0.9-0.1,1.9,0,2.8C59.3,11.3,60.8,12.7,63,12.7z"/>
	<path class="st0" d="M39.8,12.7c2.1,0,3.7-1.2,3.9-3c0.2-1.1,0.1-2.3,0.2-3.4h-0.1c0-1.1,0.1-2.1,0-3.2c-0.3-2-1.9-3.2-4-3.1
		c-2.1,0-3.7,1.4-3.8,3.4s-0.1,4.1,0,6.1C36.1,11.4,37.8,12.7,39.8,12.7z"/>
	<path class="st0" d="M12.8,6.4c0,1-0.1,1.9,0,2.9c0.2,2,1.7,3.4,3.9,3.5c2.1,0,3.9-1.3,4-3.3s0.1-4,0-6c-0.1-2.2-1.8-3.5-4-3.5
		c-2.1,0-3.7,1.4-3.9,3.5C12.7,4.5,12.8,5.4,12.8,6.4L12.8,6.4z"/>
	<path class="st0" d="M55.9,45.8c-2.6-1.2-5.4-1.4-8.2-1.3c-0.2,0-0.5,0-0.8,0c0.2-1.5,0.4-2.8,0.6-4.2c0.1-0.7,0.3-0.8,0.9-0.8
		c3.7,0,7.3,0,11,0c0.3,0,0.6,0,0.9,0c0-2.2,0-4.2,0-6.3c-6,0-12,0-18.1,0c-0.7,5.7-1.4,11.4-2.1,17c1.5-0.1,2.9-0.2,4.3-0.2
		c2.3,0,4.6,0.1,6.8,1.2c1.8,0.9,2.6,2.4,2.6,4.3c0,1.8-0.9,3.1-2.5,4c-2.1,1.1-4.3,1.1-6.5,0.8c-1.7-0.3-3.3-0.8-5-1.2
		c-0.4,1.8-0.9,3.6-1.3,5.5c0.2,0.1,0.4,0.2,0.6,0.3c3.7,1.5,7.6,1.9,11.6,1.4c3.5-0.5,6.5-2,8.8-4.8C62.9,57.2,62.7,48.9,55.9,45.8
		z"/>
	<path class="st0" d="M31.2,33.2c-2.8-0.3-5.4,0.3-7.8,1.7c-1.6,0.9-3.3,1.6-4.9,2.3c0.4,1.9,0.8,3.8,1.3,5.7c2.1-1,4.2-2,6.4-3
		c0,8.8,0,17.4,0,26c2.5,0,4.9,0,7.4,0c0-10.9,0-21.8,0-32.7C32.6,33.2,31.9,33.3,31.2,33.2z"/>
</g>
</svg>
