<?xml version="1.0" encoding="utf-8"?>
<!-- Generator: Adobe Illustrator 24.0.0, SVG Export Plug-In . SVG Version: 6.00 Build 0)  -->
<svg version="1.1" id="Layer_1" xmlns="http://www.w3.org/2000/svg" xmlns:xlink="http://www.w3.org/1999/xlink" x="0px" y="0px"
	 viewBox="0 0 80 80" style="enable-background:new 0 0 80 80;" xml:space="preserve">
<style type="text/css">
	.st0{fill:#F75A55;}
</style>
<g>
	<path class="st0" d="M80,30.5c-0.2,1.7-0.3,3.4-0.5,5c-0.5,4.7-0.8,9.4-1.4,14.1c-0.3,2.5-1.2,4.9-2.7,6.9
		c-1.4,1.8-3.2,2.9-5.5,3.3c-0.4,0.1-0.8,0.1-1.3,0.2c0,3.8,0,7.5,0,11.4c0.7,0,1.5,0,2.3,0c3.2,0.1,5.8,2.5,6.1,5.7
		c0.1,0.7-0.1,0.9-0.8,0.9c-0.7,0-1.5,0-2.2,0c-0.4,0-0.6-0.1-0.7-0.6c-0.3-1.4-1.1-2.1-2.6-2.1c-3.2,0-6.4,0-9.5,0
		c-1.5,0-2.2,0.6-2.6,2.1c-0.1,0.2-0.4,0.5-0.7,0.5c-0.8,0.1-1.7,0-2.5,0c-0.5,0-0.6-0.2-0.6-0.7c0.2-3.2,2.8-5.8,6-5.9
		c0.8,0,1.6,0,2.4,0c0-3.6,0-7.1,0-10.8c-0.3,0-0.5,0-0.8,0c-2.2,0-4.4,0-6.6,0c-0.6,0-0.9-0.2-0.8-0.8c0-1.2,0-2.5,0-3.8
		c0-0.6,0.2-0.8,0.8-0.8c2.7,0,5.3,0,8,0c2.2,0,4.4-0.3,6.2-1.7c1.9-1.4,2.8-3.5,3.1-5.7c0.4-3.1,0.6-6.2,0.8-9.3
		c0.2-2.9,0.4-5.7,0.6-8.6c0-0.4,0.1-0.7,0.6-0.7c1.6,0,3.3,0.1,4.9,0.1C80,29.6,80,30,80,30.5z"/>
	<path class="st0" d="M3.4,37.8c-1.2,0-2.3,0-3.4,0c0-1.4,0-2.8,0-4.3c13.5,0,27.1,0,40.7,0c0,1.4,0,2.8,0,4.3c-2.8,0-5.5,0-8.4,0
		c0,13.2,0,26.4,0,39.6c-9.6,0-19.2,0-28.8,0C3.4,64.2,3.4,51,3.4,37.8z"/>
	<path class="st0" d="M54.6,44.6c0.5-4.2,0.9-8.3,1.4-12.5c-1.1,0.2-2.1,0.4-3.1,0.5c-4.4,0.6-8.8,0.2-13.2-0.5
		c-0.7-0.1-1.4-0.2-2-0.5c-1.8-0.7-2.8-2.8-2.2-4.6c0.6-2,2.4-3.2,4.4-2.9c1.9,0.3,3.8,0.6,5.7,0.8c3.9,0.3,7.7,0.2,11.3-1.5
		c0.8-0.4,1.6-0.9,2.4-1.3c1.4-0.8,2.8-1.5,4.4-1.7c3.7-0.5,8.6,2.3,9,6.4c0.2,1.5-0.1,3.1-0.3,4.6c-0.5,4.9-1.1,9.9-1.7,14.8
		c-0.1,1.1-0.2,2.1-0.6,3.1c-0.9,2.6-3,3.5-5.5,3.8c-1.4,0.2-2.8,0.1-4.2,0.1c-2.9-0.1-5.9-0.2-8.8,0.4c-0.6,0.1-1.2,0.3-1.8,0.5
		c-0.9,0.3-1.6,0.9-1.9,1.9c-2.3,5.7-4,11.7-5.6,17.7c-0.5,1.9-1.4,3.2-3.4,3.7c-3.1,0.8-6-2-5.3-5.1c1-4,2.1-8.1,3.3-12
		c0.9-2.9,2-5.8,3-8.7c1-3,3.2-4.6,6.1-5.5c2.5-0.8,5.1-1,7.8-1.2C54.1,44.7,54.3,44.7,54.6,44.6z"/>
	<path class="st0" d="M55.6,11c0-4.9,4-8.8,8.8-8.8c4.9,0,8.9,4,8.8,8.9c0,4.9-4,8.8-8.8,8.8C59.5,19.8,55.6,15.9,55.6,11z"/>
	<path class="st0" d="M24.4,32.1c-2.7,0-5.3,0-8,0c-0.6,0-0.9-0.1-1-0.7c-1.8-6.5-3.5-13-5.3-19.6c-0.2-0.7-0.1-1,0.7-1.1
		c0.5-0.1,1.1-0.2,1.6-0.4c0.6-0.2,0.8,0,0.9,0.5c0.8,2.9,1.6,5.7,2.3,8.6c0.8,2.9,1.6,5.8,2.4,8.7c0.1,0.5,0.4,0.7,1,0.7
		c4.5,0,9,0,13.5,0c0.7,0,1,0.2,0.9,0.9c0,0.5-0.1,0.9,0,1.4c0.1,0.8-0.3,1-1,1C29.7,32,27.1,32.1,24.4,32.1z"/>
</g>
</svg>
