<?xml version="1.0" encoding="utf-8"?>
<!-- Generator: Adobe Illustrator 24.0.0, SVG Export Plug-In . SVG Version: 6.00 Build 0)  -->
<svg version="1.1" id="Layer_1" xmlns="http://www.w3.org/2000/svg" xmlns:xlink="http://www.w3.org/1999/xlink" x="0px" y="0px"
	 viewBox="0 0 80 80" style="enable-background:new 0 0 80 80;" xml:space="preserve">
<style type="text/css">
	.st0{fill:#F75A55;}
</style>
<path class="st0" d="M20.8,80c0-4.2,0-8.3,0-12.6c1.6,0,3.2,0,4.9,0c0-2.5,0-5,0-7.6c1.6,0,3.1,0,4.7,0c0-2,0-3.9,0-5.9
	c1.8,0,3.6,0,5.3,0c0-2.7,0-5.3,0-8.1c-4.3,2.2-8.5,4.4-12.8,6.7c0.4-2.1,0.7-4.1,1-6c0.7-4.1,1.4-8.2,2.1-12.2
	c0.1-0.5-0.1-0.9-0.5-1.3c-4.2-4.1-8.4-8.2-12.6-12.3c-0.2-0.2-0.3-0.4-0.6-0.6c2.3-0.3,4.5-0.7,6.7-1c3.9-0.6,7.9-1.1,11.8-1.7
	c0.3,0,0.6-0.4,0.8-0.7c2.6-5.2,5.2-10.4,7.8-15.7c0.3-0.4,0.4-0.6,0.6-1c0.2,0.4,0.3,0.6,0.5,0.9c2.6,5.2,5.2,10.5,7.7,15.7
	c0.2,0.4,0.4,0.7,1,0.7c6,0.8,12,1.7,17.9,2.6c0.1,0,0.2,0,0.5,0.1c-0.2,0.2-0.4,0.4-0.5,0.6c-4.2,4.1-8.4,8.2-12.6,12.3
	c-0.5,0.5-0.6,0.9-0.5,1.5c1,5.9,2,11.8,3.1,17.7c0,0.1,0,0.2,0,0.4c-4.2-2.2-8.4-4.4-12.7-6.7c0,2.7,0,5.4,0,8.1c1.7,0,3.5,0,5.3,0
	c0,2,0,3.9,0,5.9c1.6,0,3.1,0,4.7,0c0,2.6,0,5,0,7.6c1.7,0,3.3,0,5,0c0,4.3,0,8.5,0,12.6C46.4,80,33.6,80,20.8,80z"/>
</svg>
