<?xml version="1.0" encoding="utf-8"?>
<!-- Generator: Adobe Illustrator 24.0.0, SVG Export Plug-In . SVG Version: 6.00 Build 0)  -->
<svg version="1.1" id="Layer_1" xmlns="http://www.w3.org/2000/svg" xmlns:xlink="http://www.w3.org/1999/xlink" x="0px" y="0px"
	 viewBox="0 0 80 80" style="enable-background:new 0 0 80 80;" xml:space="preserve">
<style type="text/css">
	.st0{fill:#F75A55;}
</style>
<g>
	<path class="st0" d="M80,61.5c0-0.2,0-0.4,0-0.6c0-0.3,0-0.6,0-1s0-0.7,0-1c0-0.2,0-0.4,0-0.5s-0.1-0.3-0.1-0.4
		c-1-8.6-8.3-15.4-17.2-15.4c-9.5,0-17.3,7.8-17.3,17.3c0,5.7,2.7,10.7,7,13.9c0.1,0.1,0.2,0.2,0.3,0.2l0,0c0.9,0.7,2,1.3,3,1.7
		c2.1,0.9,4.5,1.5,7,1.5c2.4,0,4.7-0.5,6.8-1.4c2.6-1,4.7-2.6,6.4-4.8c2.2-2.5,3.6-5.7,4-9.2C79.9,61.8,79.9,61.6,80,61.5z M74,61
		c0.5,0,0.9,0,1.4,0c-0.1,5.4-5,11.2-11.6,11.6c0-0.4,0-0.9,0-1.3c0-0.8-0.5-1.2-1.1-1.2s-1,0.5-1.1,1.2c0,0.4,0,0.8,0,1.2
		C56.7,73.3,49.8,66.4,50,61c0.4,0,0.8,0,1.2,0c0.8,0,1.2-0.5,1.3-1.1c0-0.7-0.4-1.1-1.2-1.1c-0.4,0-0.8,0-1.2,0
		c0-4.8,4.4-11,11.5-11.6c0,0.4,0,0.9,0,1.3c0,0.8,0.5,1.3,1.1,1.3s1.1-0.5,1.1-1.3c0-0.4,0-0.8,0-1.2c5.8,0.2,11.4,5.6,11.6,11.6
		c-0.5,0-0.9,0-1.4,0c-0.7,0-1.1,0.4-1.1,1.1C72.9,60.6,73.3,61,74,61z"/>
	<path class="st0" d="M50.2,76.6c-2.7-2-4.7-4.5-6.2-7.5c-0.3-0.5-0.6-0.7-1.1-0.7c-8.5,0-17,0-25.5,0c-5.1,0-8.7-3.6-8.7-8.6
		c0-8.8,0-17.7,0-26.5c0-0.3,0-0.5,0-0.8c16.5,0,32.8,0,49.3,0c0,2.4,0,4.8,0,7.2c2.9-0.6,5.8-0.7,8.7-0.2c0-8.8,0-17.4,0-26.1
		c-0.4,0-0.8,0-1.1,0c-2.2,0-4.4,0-6.7,0c0,0.4,0,0.6,0,0.9c0,2,0,4.1,0,6.1c-0.1,4.3-3.5,7.9-7.6,8.4c-4.6,0.5-8.5-2.2-9.6-6.5
		c-0.2-0.8-0.3-1.7-0.3-2.6c0-2,0-4.1,0-6.2c-5.4,0-10.7,0-16,0c0,0.4,0,0.7,0,1c0,2.1,0,4.2-0.1,6.2c-0.2,4.5-4,8.1-8.6,8.2
		c-4.5,0.1-8.4-3.5-8.7-8c-0.1-2.2-0.1-4.3-0.1-6.5c0-0.3,0-0.6,0-1c-2.7,0-5.2,0-7.8,0c0,0.3,0,0.5,0,0.7c0,15.3,0,30.6,0,45.8
		c0,1.2,0.1,2.5,0.4,3.7C2.3,71.6,9,77,17.1,77.1c10.9,0.1,21.8,0,32.7,0c0.3,0,0.6,0,0.9,0c-0.1-0.1-0.1-0.2-0.1-0.2
		C50.4,76.8,50.3,76.7,50.2,76.6z"/>
	<path class="st0" d="M47.3,24.7c3.7,2.2,8.2-0.4,8.3-4.7c0-1.9,0-3.9,0-5.8s0-3.9,0-5.8c-0.1-3.1-2.4-5.5-5.4-5.5
		c-2.9-0.1-5.4,2.2-5.5,5.1c-0.1,4.2-0.1,8.3,0,12.5C44.7,22.3,45.7,23.8,47.3,24.7z"/>
	<path class="st0" d="M16.7,25.5c2.8,0,5.2-2.2,5.3-4.9c0.1-2.2,0-4.3,0-6.5s0.1-4.4,0-6.5c-0.1-2.7-2.6-4.8-5.3-4.9
		c-2.8,0-5.3,2.1-5.4,4.9c-0.1,4.3-0.1,8.7,0,13C11.3,23.4,13.9,25.6,16.7,25.5z"/>
	<path class="st0" d="M16,37.9c-1.7,0-2.9,1.1-2.9,2.8s0,3.5,0,5.2c0,1.6,1.1,2.7,2.7,2.8c1.8,0.1,3.7,0.1,5.5,0
		c1.5-0.1,2.6-1.2,2.7-2.7c0.1-1.8,0.1-3.6,0-5.4c0-1.6-1.2-2.7-2.8-2.7c-0.9,0-1.7,0-2.6,0l0,0C17.8,37.9,16.9,37.9,16,37.9z"/>
	<path class="st0" d="M38.8,40.5C38.7,39,37.6,38,36.1,38c-1.8,0-3.6,0-5.5,0c-1.5,0-2.6,1.2-2.7,2.7c0,0.9,0,1.8,0,2.6l0,0
		c0,0.9,0,1.8,0,2.6c0,1.6,1.1,2.8,2.6,2.8c1.9,0.1,3.7,0.1,5.6,0c1.5-0.1,2.5-1.1,2.6-2.5C38.9,44.3,38.9,42.4,38.8,40.5z"/>
	<path class="st0" d="M13.2,60.3c0.1,1.5,1.2,2.6,2.7,2.7c1.8,0,3.6,0,5.5,0c1.5,0,2.6-1.1,2.7-2.6c0.1-1.9,0.1-3.7,0-5.6
		c-0.1-1.5-1.2-2.5-2.7-2.6c-0.9,0-1.8,0-2.7,0l0,0c-0.9,0-1.8,0-2.7,0c-1.6,0.1-2.7,1.1-2.8,2.7C13.1,56.7,13.1,58.5,13.2,60.3z"/>
	<path class="st0" d="M36.2,52.2c-1.9-0.1-3.7-0.1-5.6,0c-1.5,0-2.6,1.2-2.6,2.7c0,1.8,0,3.6,0,5.5c0,1.5,1.1,2.6,2.6,2.7
		c0.9,0,1.8,0,2.7,0l0,0c1,0,1.9,0,2.9,0c1.4-0.1,2.5-1.1,2.5-2.4c0.1-2,0.1-4,0-6C38.7,53.2,37.6,52.2,36.2,52.2z"/>
	<path class="st0" d="M51,37.9c-0.9,0-1.8,0-2.7,0l0,0c-0.9,0-1.8,0-2.7,0c-0.1,0-0.2,0-0.2,0C44,38,42.9,39,42.8,40.3
		c-0.1,2-0.1,4,0,6c0,1,0.6,1.6,1.5,2.1c0.5,0.3,0.9,0.3,1.3-0.3c1.8-2.7,4.2-4.8,7.1-6.4c1-0.6,1.2-1,0.7-2
		C52.9,38.6,52.1,38,51,37.9z"/>
	<path class="st0" d="M68.9,58.3c-0.9,0-1.9,0-2.8,0c-0.6,0-1.1,0-1.5-0.5c-0.3-0.4-1-0.5-1.4-0.7c-0.3-0.2-0.7-0.3-0.8-0.6
		c-1.1-1.4-2-2.9-3.1-4.3c-0.3-0.4-0.8-0.8-1.3-0.9c-0.7-0.2-1.3,0.1-1.7,0.7c-0.4,0.7-0.3,1.4,0.1,2c1,1.4,2,2.8,3,4.2
		c0.3,0.5,0.5,0.9,0.5,1.6c-0.2,1.3,0.4,2.2,1.5,2.8c1,0.6,2.4,0.5,3.2-0.3c0.6-0.6,1.1-0.6,1.8-0.6c0.3,0,0.6,0,0.9,0l0,0
		c0.6,0,1.1,0,1.7,0c1.1-0.1,1.8-0.7,1.8-1.6C70.8,59,70.1,58.3,68.9,58.3z"/>
</g>
</svg>
