<?xml version="1.0" encoding="utf-8"?>
<!-- Generator: Adobe Illustrator 24.0.0, SVG Export Plug-In . SVG Version: 6.00 Build 0)  -->
<svg version="1.1" id="Layer_1" xmlns="http://www.w3.org/2000/svg" xmlns:xlink="http://www.w3.org/1999/xlink" x="0px" y="0px"
	 viewBox="0 0 80 80" style="enable-background:new 0 0 80 80;" xml:space="preserve">
<style type="text/css">
	.st0{fill:#F75A55;}
</style>
<g>
	<path class="st0" d="M-1.4,10.4c2.9-0.6,5.8-1.2,8.7-1.9C20.1,5.7,32.9,2.9,45.7,0c0.6-0.1,0.9,0,1.3,0.4C55.1,9,63.2,17.5,71.3,26
		c0.2,0.2,0.3,0.4,0.4,0.5c1.6-0.6,3.1-0.6,4.6-0.3c1.6,0.3,2.4,1.5,2.1,3.2c-0.2,0.8-0.5,1.6-0.8,2.5c-0.2,0.5-0.1,0.8,0.3,1.2
		c1.1,1.1,2.2,2.2,3.4,3.5c-1.1,0.2-2,0.6-3,0.6c-1.9,0.1-2.7,1-3.2,2.9c-1.1,4-2.4,7.9-3.7,11.9c1,0.3,2,0.7,3,1
		c-0.7,2.2-1.3,4.3-2,6.5c-0.9-1-1.7-1.9-2.5-2.9c-0.9-1-0.9-1-2.1-0.6c-1,0.3-2.1,0.6-3.3,1c0.7-2.2,1.3-4.3,2-6.5
		c0.9,0.3,1.8,0.5,2.8,0.8c1.4-4.3,2.7-8.7,4.1-13.2c-3.3,0.6-6.5,1.2-9.8,1.9c0.4-1.2,0.7-2.3,1-3.4c0.1-0.3,0-0.7-0.2-0.9
		c-6-5.7-12.8-10.6-20.6-13.8c-5-2-10.2-2.9-15.5-3.1c-5-0.2-10,0.1-14.9,0.9c-0.7,0.1-1.1,0.4-1.2,1.1c-0.1,0.4-0.2,0.8-0.4,1.3
		c-0.3-0.2-0.5-0.4-0.7-0.6c-3.8-3.4-7.5-6.7-11.3-10.1c-0.4-0.3-0.7-0.6-1.1-0.9C-1.4,10.5-1.4,10.4-1.4,10.4z M75.8,34.5
		c0-1.1-0.9-2.1-2-2.1s-2.1,1-2.1,2c0,1.1,1,2.1,2,2.1C74.9,36.5,75.8,35.6,75.8,34.5z M75.8,30.7c0.1,0,0.2,0,0.3,0
		c0-0.7,0.3-1.6,0-2c-0.5-0.6-1.4-0.2-2.2,0C74.5,29.4,75.1,30,75.8,30.7z"/>
	<path class="st0" d="M11.5,32.4c1.1-3.5,2.1-6.8,3.1-10c0.1-0.2,0.4-0.5,0.6-0.5c8.2-1.4,16.4-1.6,24.5,0.8
		c4.5,1.3,8.6,3.5,12.5,6.1c3.2,2.2,6.3,4.5,9.1,7.2c0.3,0.3,0.5,0.5,0.3,0.9c-1,3.2-2,6.5-3,9.7c0,0.1-0.1,0.2-0.2,0.5
		C43.9,38.7,28.3,33.8,11.5,32.4z"/>
	<path class="st0" d="M9.9,37.3c0.8,0.8,1.6,1.7,2.5,2.6c0.5-0.4,0.9-0.7,1.3-1c2.4-1.8,5-2.8,8-2.7c0.3,0,0.7,0.2,0.8,0.4
		c2.7,4.5,6.5,8,10.4,11.3c4.7,4.1,9.7,7.9,14.9,11.4c0.6,0.4,1.2,0.7,1.8,1.1c2.7,1.6,4.2,3.9,4.5,7c0.4,4-0.7,7.6-3.6,10.4
		c-2.7,2.7-6.6,3-9.3,0.9c-0.3-0.2-0.5-0.5-0.8-0.7c-4.7-4.5-9.3-9-14-13.5c-0.4-0.4-0.8-0.7-1.2-1c-3.5,3.7-4.2,8.4-4.8,13.2
		c-0.5-1-0.9-2-1.4-3c-0.7,0.2-1.4,0.4-2.1,0.6c0-4.4,1.9-8,4.5-11.6c-4.6,2-7,5.6-8.7,9.9c-0.2-0.3-0.3-0.4-0.3-0.5
		c-0.5-1.7-1.6-2.4-3.3-2.5c-0.4,0-0.8-0.2-1.3-0.3c3.8-3.8,8-6.9,12.5-10c-3.9-2.8-7.5-5.4-11.2-8c-0.6-0.5-1.3-0.9-1.8-1.5
		c-2-2-2.3-4.6-1.1-7.4C6.8,40.7,8.5,38.5,9.9,37.3z M40.2,62c0,0.2-0.1,0.5-0.1,0.8c-0.1,2.1-0.4,4.3-0.4,6.4s0.3,4.2,1.3,6.1
		c1.3,2.5,4,3.4,6.5,2.1c2.3-1.2,3.5-3.3,4.2-5.7c1.1-3.6,0.2-6.9-2.5-9.1c-1.4-1.2-2.8-1-4,0.4c-0.3,0.4-0.6,0.8-0.9,1.3
		c1.8,1.6,3.5,3.1,5.2,4.6c0.2,0.2,0.4,0.6,0.4,0.8c-0.2,0.8-0.4,1.6-0.8,2.4c-1.2,2.4-3.6,2.8-5.5,1.1c-1.5-1.3-2.3-3.1-2.3-5.1
		c0.1-3.2,1.2-6,3.9-7.9C45.1,60.1,45.1,60,45,60c-3.7-2.8-7.3-5.6-11-8.3c-0.2-0.1-0.4-0.3-0.6-0.2c-2,0.4-4,1.1-5.5,2.8
		C31.9,57.2,35.5,60.3,40.2,62z M20.1,56.6c0.7-1.6,1.3-3.1,1.9-4.7c-4-3.8-8-7.7-12.2-11.7c-0.6,0.9-1.2,1.7-1.7,2.5
		c-1.5,2.6-0.9,4.7,1.5,6.4c2.4,1.6,4.7,3.3,7,4.9C17.9,54.9,19.1,55.8,20.1,56.6z M26.8,56c-0.4,1.5-0.8,2.9-1.2,4.3
		c-0.1,0.5,0,0.8,0.4,1.1c3.8,3.5,7.6,7.1,11.4,10.6c0.2,0.2,0.3,0.3,0.6,0.5c0-0.1,0.1-0.2,0-0.2c-0.4-2.8-0.4-5.6,0-8.4
		c0-0.2-0.3-0.6-0.5-0.7c-1.3-0.8-2.7-1.5-4-2.4C31.2,59.2,29.1,57.7,26.8,56z M13.9,41.3c3.2,3,6.3,6,9.4,8.9
		c1.5-1.8,3.2-2.8,5.5-3.1c-0.1-0.2-0.2-0.3-0.3-0.4c-2.6-2.5-5.2-5.2-7.2-8.2c-0.1-0.2-0.4-0.3-0.7-0.3
		C18.1,38.4,16,39.6,13.9,41.3z M43.6,66.4c-0.1,0.5-0.2,0.8-0.2,1.1c-0.2,1.8,0.5,3.3,1.9,4.4c0.5,0.4,1.1,0.5,1.5,0
		s0.6-1.2,0.9-1.8c0,0-0.1-0.2-0.2-0.2C46.2,68.7,45,67.6,43.6,66.4z"/>
</g>
</svg>
