<?xml version="1.0" encoding="utf-8"?>
<!-- Generator: Adobe Illustrator 24.0.0, SVG Export Plug-In . SVG Version: 6.00 Build 0)  -->
<svg version="1.1" id="Layer_1" xmlns="http://www.w3.org/2000/svg" xmlns:xlink="http://www.w3.org/1999/xlink" x="0px" y="0px"
	 viewBox="0 0 74 80" style="enable-background:new 0 0 74 80;" xml:space="preserve">
<style type="text/css">
	.st0{fill-rule:evenodd;clip-rule:evenodd;fill:#F75A55;}
</style>
<path class="st0" d="M20.6,10.3c0,5.4-4.4,9.9-9.9,9.9c-5.4,0-9.9-4.4-9.9-9.8c0-5.4,4.4-10,9.9-10C16.1,0.5,20.5,4.9,20.6,10.3z
	 M73.3,11.2C73.3,8.4,72,7,69.2,7H48.1H47c-0.5-2.2-1.7-3.2-3.3-3.3c-1.7-0.1-2.8,1-3.5,3.3H27.2v6.6h1h16.9c1.7,0,3.4,0,5.1,0h0
	c5.1,0,10.2,0,15.3,0c0.9,0,1.2,0.2,1.2,1.2c0,7.7,0,15.3,0,23c0,2.6,0,5.1,0,7.7v1.1H27.2v6.6h5.6l0,0.1c0,0.2-0.1,0.3-0.1,0.4
	c-0.9,3.6-1.8,7.1-2.7,10.7c-0.9,3.6-1.8,7.1-2.7,10.7c-0.5,2.1,0.4,3.9,2.4,4.3c1.9,0.5,3.5-0.7,4-2.8c0.5-2,1-3.9,1.5-5.9l0,0l0,0
	c0.5-2,1-3.9,1.5-5.9c0.3-1.2,0.6-2.4,0.9-3.6l0,0c0.6-2.4,1.2-4.8,1.8-7.2c0.1-0.3,0.4-0.8,0.7-0.8c2,0,4,0,6,0c0.5,0,1,0,1.5,0
	c0,0.2,0.1,0.3,0.1,0.5c0,0.2,0.1,0.3,0.1,0.5c0.9,3.7,1.9,7.5,2.8,11.2c0.9,3.7,1.9,7.5,2.8,11.2c0.5,2.2,2.2,3.3,4.1,2.9
	c2-0.5,2.9-2.2,2.3-4.4l-5.2-20.8c-0.1-0.3-0.1-0.5-0.2-0.9v0l0-0.1h1.1h13.8c2.6,0,3.8-1.2,3.8-3.8V24.5c0-2,0-3.9,0-5.9v0
	C73.3,16.1,73.3,13.7,73.3,11.2z M43.3,31.4c1-2.3-0.7-4.6-3.3-4.6H7.5c-0.5,0-1,0-1.5,0.1c-3.2,0.7-5.2,3.3-5.2,6.7v42
	c0,0.3,0,0.5,0,0.8c0.3,2.2,2.5,3.6,4.5,2.9c1.8-0.7,2.2-2.1,2.4-3.8C8.1,68.6,8.5,61.7,9,54.9c0.1-1,0.7-1.7,1.6-1.7
	c0.9,0,1.6,0.7,1.7,1.7c0.2,2.5,0.3,5,0.5,7.4l0,0l0,0c0.2,2.5,0.3,4.9,0.5,7.4c0,0.6,0.1,1.2,0.1,1.8c0.1,1.7,0.2,3.3,0.4,5
	c0.3,2.2,2.6,3.5,4.7,2.6c1.5-0.7,2.1-1.9,2.1-3.5V56.4V37.2c0-2.5,1.2-3.7,3.7-3.7c2.6,0,5.2,0,7.9,0c2.6,0,5.2,0,7.9,0
	C41.5,33.4,42.7,32.8,43.3,31.4z"/>
</svg>
