<?xml version="1.0" encoding="utf-8"?>
<!-- Generator: Adobe Illustrator 24.0.0, SVG Export Plug-In . SVG Version: 6.00 Build 0)  -->
<svg version="1.1" id="Layer_1" xmlns="http://www.w3.org/2000/svg" xmlns:xlink="http://www.w3.org/1999/xlink" x="0px" y="0px"
	 viewBox="0 0 80 80" style="enable-background:new 0 0 80 80;" xml:space="preserve">
<style type="text/css">
	.st0{fill:#F75A55;}
</style>
<path class="st0" d="M79.9,13.3c0-3.5-3.3-7.2-7.2-7.1c-9.7,0.1-19.4,0-29.1,0c-0.3,0-0.6,0-0.9,0c0-1.2,0-2.3,0-3.3
	c-0.1-1.5-1.1-2.5-2.5-2.5c-1.4,0-2.4,1-2.4,2.5c0,1.1,0,2.2,0,3.3c-0.6,0-1.1,0-1.6,0c-9.4,0-18.9,0.1-28.3,0
	c-3.9,0-7.3,3.6-7.2,7.2c0.1,13.2,0.1,26.4,0,39.6c0,3.6,3.3,7.3,7.2,7.2c7.2-0.1,14.4,0,21.7,0c0.3,0,0.6,0,1.1,0
	c-0.3,0.4-0.5,0.6-0.6,0.8c-4.1,4.8-8.1,9.6-12.1,14.4c-0.6,0.7-0.9,1.4-0.7,2.3c0.2,1,0.8,1.7,1.8,1.9c1.1,0.3,2-0.1,2.7-0.9
	c4.8-5.6,9.5-11.3,14.3-16.9c0.2-0.2,0.4-0.4,0.7-0.8c0,2.2,0,4.1,0,6.1c0,3.4,0,6.7,0,10.1c0,1.6,1.1,2.7,2.7,2.5
	c1.3-0.1,2.2-1.2,2.2-2.7c0-5,0-10,0-15c0-0.3,0-0.5,0-1c0.3,0.3,0.4,0.4,0.5,0.6c4.7,5.5,9.4,11.1,14.1,16.6
	c0.1,0.2,0.3,0.3,0.4,0.5c1.1,1.2,2.6,1.4,3.7,0.5c1.1-0.9,1.2-2.5,0.1-3.7c-3-3.6-6.1-7.2-9.2-10.8c-1.2-1.4-2.3-2.8-3.7-4.3
	c0.5,0,0.8,0,1.1,0c7.9,0,15.8,0,23.7,0c0.7,0,1.4,0,2.1-0.1c3.1-0.7,5.4-3.6,5.4-6.8C79.9,39.9,79.9,26.6,79.9,13.3z M73.1,55.2
	c-10.2,0-20.5,0-30.7,0c-0.7,0-1.4,0-2.1,0c0,0,0,0,0,0c-10.7,0-21.3,0-32,0c-2.4,0-2.5-0.1-2.5-2.5c0-13.1,0-26.2,0-39.4
	c0-0.3,0-0.6,0-1c0.1-0.6,0.4-1,1-1.1c0.4,0,0.7-0.1,1.1-0.1c10.5,0,20.9,0,31.4,0c11,0,22,0,33,0c0.3,0,0.6,0,0.9,0
	c1.4,0,1.8,0.4,1.8,1.8c0,13.5,0,26.9,0,40.4C75,54.8,74.6,55.2,73.1,55.2z"/>
</svg>
