<?xml version="1.0" encoding="utf-8"?>
<!-- Generator: Adobe Illustrator 24.0.0, SVG Export Plug-In . SVG Version: 6.00 Build 0)  -->
<svg version="1.1" id="Layer_1" xmlns="http://www.w3.org/2000/svg" xmlns:xlink="http://www.w3.org/1999/xlink" x="0px" y="0px"
	 viewBox="0 0 68 80" style="enable-background:new 0 0 68 80;" xml:space="preserve">
<style type="text/css">
	.st0{fill-rule:evenodd;clip-rule:evenodd;fill:#F75A55;}
</style>
<path class="st0" d="M26.7,7C26.7,7,26.7,7,26.7,7c-2.4-0.2-3-0.8-2.9-3.2V2.7c0-1.3,0.8-1.9,1.8-2.3h17C44,1,44.6,2,44.4,3.5
	c0,0.2,0,0.4,0,0.6c0,0.1,0,0.2,0,0.3c0,1.6-0.9,2.5-2.5,2.5c-0.1,0-0.2,0-0.3,0c-0.1,0-0.2,0-0.3,0v1.4c0,1.5-0.6,2-2.1,1.8
	c-3.6-0.5-7.1-0.5-10.7,0c-1.1,0.2-1.7-0.4-1.7-1.5c0-0.4,0-0.8,0-1.2c0-0.2,0-0.4,0-0.5C26.8,7,26.8,7,26.7,7z M0.9,46.4
	c0-18.3,14.8-33.2,33.2-33.3c18.3,0,33.3,14.9,33.2,33.2c0,18.3-14.9,33.2-33.2,33.2C15.8,79.6,0.9,64.7,0.9,46.4z M5.1,46.4
	c0,16,13.1,29,29,29c16,0,29-13,28.9-29c0-16-13.1-29-29-29C18,17.4,5,30.4,5.1,46.4z M50.3,13.8c0.3,0.1,0.5,0.3,0.8,0.4h0
	c0.3,0.2,0.6,0.3,0.9,0.5c2.5,1.4,4.9,3.1,7,5.1c1.1,1.1,2,1,2.9-0.3c0.4-0.5,0.7-1.1,1.1-1.6c0.6-0.9,0.5-1.3-0.3-1.9
	c-2.5-1.8-5-3.5-7.5-5.3l0,0c-0.8-0.5-1.5-1.1-2.3-1.6c-0.2-0.1-0.3-0.2-0.5-0.3c-0.1,0-0.2-0.1-0.3-0.1c-0.1,0-0.1,0.1-0.2,0.1
	c-0.2,0.1-0.3,0.1-0.4,0.2c-0.1,0.1-0.2,0.3-0.3,0.4l0,0c-0.6,0.8-1.1,1.5-1.6,2.4C49.2,12.7,49.4,13.3,50.3,13.8z M57.5,42.4
	c0.1,0.5,0.2,1,0.2,1.5c0.2,1.5-0.6,2.5-2.1,2.5c-0.8,0-1.6,0-2.4,0c-0.4,0-0.8,0-1.2,0H37c-2.1,0-2.8-0.8-2.8-2.8v-9.2V25
	c0-2,0.6-2.6,2.6-2.3c5.7,0.8,10.7,2.9,14.7,7.1C54.8,33.4,56.6,37.7,57.5,42.4z"/>
</svg>
