<?xml version="1.0" encoding="utf-8"?>
<!-- Generator: Adobe Illustrator 24.0.0, SVG Export Plug-In . SVG Version: 6.00 Build 0)  -->
<svg version="1.1" id="Layer_1" xmlns="http://www.w3.org/2000/svg" xmlns:xlink="http://www.w3.org/1999/xlink" x="0px" y="0px"
	 viewBox="0 0 80 80" style="enable-background:new 0 0 80 80;" xml:space="preserve">
<style type="text/css">
	.st0{fill:#F75A55;}
</style>
<g>
	<path class="st0" d="M3.9,80c-1-0.8-1-1.6,0-2.4c0.2-0.2,0.3-0.6,0.2-0.9c0-3.1,0.8-5.9,2.7-8.3c0.8-0.9,1.8-1.6,2.7-2.4
		c-0.7-0.4-1.6-0.9-2.4-1.5c-3.4-2.9-3.1-6.9,0.3-9.8c2-1.7,4.4-2.3,6.9-1.8c0.9,0.2,1.7,1,2.4,1.6c2.8,2.6,2.7,8-0.2,10.6
		c-0.6,0.6-1.4,0.9-2.1,1.4c3.5,2.1,4.4,5.7,5.1,9.4c0.1,0.6,0.1,1.1,0.2,1.7c0.1,1-0.3,1.5-1.3,1.6c-2.9,0.2-5.8,0.4-8.6,0.7
		c-1.4,0.1-2.9,0.2-4.3,0.3C5,80,4.5,80,3.9,80z"/>
	<path class="st0" d="M37.8,17.9c0.2,3.4-2,5.1-4.6,6.2c-6.9,3-13.9,3.4-21.1,1.3c-3.4-1-6.2-2.9-7.9-6.1C1.8,15,2.5,9.9,6,6.3
		c4-4.2,9-6.1,14.8-6.2C24.7,0,28.5,0.7,32,2.7s5.8,4.9,6.4,9c0.1,0.6,0.3,0.8,0.9,0.9c2,0.1,3.9,2.1,4.5,4.3
		c0.1,0.2,0.1,0.4,0.1,0.6c0.2,1-0.4,1.6-1.4,1.4c-1.3-0.2-2.7-0.5-4-0.8C38.3,18,38.1,18,37.8,17.9z"/>
	<path class="st0" d="M45.8,40c-1.8-0.1-3.5-0.3-5.2-0.4c-0.8-0.1-1.2-0.6-1-1.2c0.2-0.5,0.6-0.7,1.1-0.7c1.7,0,3.3,0,5.1,0
		c-0.2-1.1-0.4-2-0.6-2.9c-0.5-2.6-0.6-5.2-0.1-7.8c0.8-4.1,3.3-6.7,7.1-8c3.9-1.4,8-1.5,12.1-0.8c3.8,0.7,6,3.3,6.7,6.9
		c0.8,4,1,8,0.4,12c0,0.1,0,0.3,0,0.4c0.8,0,1.7,0,2.5,0c0.7,0,1.2,0.2,1.4,0.9c0.2,0.7-0.3,1.1-0.9,1.3c-1.3,0.4-2.7,0.6-4.1,0.9
		c-0.3,0.1-0.6,0-1,0c0.1,0.7,0.3,1.4,0.3,2c-0.1,1.7-0.3,3.4-0.5,5.1c-0.1,0.8-0.7,1.1-1.4,1c-1-0.1-2-0.3-3-0.3
		c-3.4,0.1-6.9,0.3-10.3,0.4c-2.3,0.1-4.7,0.2-7,0.2c-0.9,0-1.3-0.4-1.5-1.4c-0.3-2.3-0.3-4.6-0.1-6.9C45.7,40.5,45.7,40.3,45.8,40z
		 M63.9,38.1c0.6,0,1.2,0,1.8,0c0.6,0.1,0.9-0.2,0.9-0.8c0.1-2.5-0.4-4.9-1.3-7.3c-0.2-0.7-0.5-1-1.4-0.6
		C63.9,32.2,63.9,35.1,63.9,38.1z M48.8,37.5c0.6,0,1,0.1,1.5,0.1c0-2.9,0-5.6,0-8.4c-0.1,0-0.1,0-0.2,0
		C48.8,31.8,48.8,34.6,48.8,37.5z"/>
	<path class="st0" d="M28.6,66.5c-0.9-0.7-2-1.2-2.8-2.1c-3.1-3.4-2.1-8.4,2.1-10.5c1.5-0.7,3.2-1,4.8-1.1c2.6-0.1,4.7,1.8,5.5,4.6
		c1.1,3.9-1.8,7.4-4.8,8.6c-0.2,0.1-0.4,0.2-0.6,0.3c3.4,1.6,4.4,4.7,5.2,8c0.2,0.9,0.3,1.8,0.4,2.7c0.2,1.1-0.3,1.7-1.4,1.8
		c-1.3,0.1-2.7,0.1-4.1,0.2c-2.2,0.1-4.5,0.2-6.7,0.3c-1.5,0.1-1.7,0-2-1.4C23,73.3,24.7,69,28.6,66.5
		C28.6,66.4,28.6,66.4,28.6,66.5z"/>
	<path class="st0" d="M67.6,66.6c-0.9-0.9-2-1.7-2.8-2.7c-0.9-1.1-1.1-2.5-0.8-4c0.4-1.7,0.8-3.3,2.1-4.6c2.2-2.2,5.5-2.8,7.8-1.4
		c1.2,0.7,2,1.8,2.4,3.2c1.1,3.2-0.1,7.2-2.7,9.2c-0.4,0.3-0.8,0.5-1.1,0.7c1,1,2.1,2.1,3,3.2c0.9,1.2,1.6,2.6,1.7,4.1
		c0.1,2.4-1.5,4.4-3.8,5c-2,0.5-4,0.3-6,0.1c-0.8-0.1-1.6-0.2-2.3-0.2c-0.9,0-1.3-0.4-1.8-1.2c-1.9-3.3,0-8.3,3-10.4
		C66.7,67.1,67.3,66.8,67.6,66.6z"/>
	<path class="st0" d="M48.8,65.8c-1.4-0.9-2.5-1.9-3.2-3.3c-0.6-1.3-0.8-2.7-0.4-4.1c0.6-1.7,1.1-3.4,2.6-4.5c2.7-2,7.4-1.7,8.6,3.1
		c0.8,3.1-0.3,6.9-2.7,8.6c-0.3,0.2-0.6,0.4-0.9,0.6v0.1c2.3,1.4,3.3,3.7,3.8,6.2c0.4,1.5,0.5,3.1,0.7,4.7c0.1,0.9-0.4,1.5-1.3,1.5
		c-3.2,0.2-6.3,0.4-9.5,0.6c-0.6,0-1.2-0.4-1.9-0.5c-1.3-0.2-1.2-1.2-1.3-2.1c-0.2-2.4,0-4.7,1-7C45.3,67.8,46.6,66.4,48.8,65.8z"/>
	<path class="st0" d="M65,9.3c-0.1,5.4-5.3,9.1-9.7,7.3c-3.3-1.3-5.9-5.6-4-10c1-2.4,2.8-4,5.5-4c1.6,0,3.3,0.1,4.8,0.9
		C64,4.9,64.9,7.1,65,9.3z"/>
</g>
</svg>
